<svg width="18" height="21" viewBox="0 0 18 21" fill="none" xmlns="http://www.w3.org/2000/svg">
<path d="M17 8.66675C17 14.889 9 20.2223 9 20.2223C9 20.2223 1 14.889 1 8.66675C1 6.54502 1.84285 4.51018 3.34315 3.00989C4.84344 1.5096 6.87827 0.666748 9 0.666748C11.1217 0.666748 13.1566 1.5096 14.6569 3.00989C16.1571 4.51018 17 6.54502 17 8.66675Z" stroke="#2B2D3A" stroke-linecap="round" stroke-linejoin="round"/>
<path d="M9.00016 11.3333C10.4729 11.3333 11.6668 10.1394 11.6668 8.66667C11.6668 7.19391 10.4729 6 9.00016 6C7.5274 6 6.3335 7.19391 6.3335 8.66667C6.3335 10.1394 7.5274 11.3333 9.00016 11.3333Z" stroke="#2B2D3A" stroke-linecap="round" stroke-linejoin="round"/>
</svg>
